<svg width="18" height="19" viewBox="0 0 18 19" fill="none" xmlns="http://www.w3.org/2000/svg">
<g id="Call">
<path id="Union" d="M16.0621 17.7183C14.1077 19.6726 9.10282 17.8363 4.88327 13.6167C0.663724 9.39718 -1.17261 4.39227 0.781703 2.43795L2.06847 1.15118C2.9568 0.262856 4.42054 0.286338 5.33784 1.20363L7.33092 3.19672C8.24822 4.11401 8.2717 5.57776 7.38337 6.46609L7.10699 6.74247C6.62737 7.22209 6.58045 7.99581 7.0261 8.53587C7.45597 9.05679 7.9194 9.57565 8.42188 10.0781C8.92435 10.5806 9.44321 11.044 9.96413 11.4739C10.5042 11.9196 11.2779 11.8726 11.7575 11.393L12.0339 11.1166C12.9222 10.2283 14.386 10.2518 15.3033 11.1691L17.2964 13.1622C18.2137 14.0795 18.2371 15.5432 17.3488 16.4315L16.0621 17.7183Z" fill="black"/>
</g>
</svg>
