<svg width="64" height="64" viewBox="0 0 64 64" fill="none" xmlns="http://www.w3.org/2000/svg">
<g id="facebook">
<g id="Group">
<path id="Vector" d="M8.78528 6C7.25862 6 6 7.25818 6 8.78572V11.5714H58V8.78572C58 7.25818 56.7418 6 55.2143 6H8.78528ZM12.4997 7.857C12.746 7.857 12.9823 7.95485 13.1564 8.12902C13.3306 8.30319 13.4284 8.53941 13.4284 8.78572C13.4283 9.03196 13.3304 9.26807 13.1563 9.44214C12.9821 9.61622 12.746 9.714 12.4997 9.714C12.2535 9.714 12.0173 9.61622 11.8432 9.44214C11.669 9.26807 11.5711 9.03196 11.571 8.78572C11.571 8.53941 11.6689 8.30319 11.843 8.12902C12.0172 7.95485 12.2534 7.857 12.4997 7.857ZM16.2142 7.857C16.4604 7.85712 16.6965 7.95502 16.8706 8.12917C17.0447 8.30333 17.1425 8.53949 17.1425 8.78572C17.1423 9.03188 17.0445 9.26793 16.8704 9.44199C16.6964 9.61605 16.4603 9.71389 16.2142 9.714C15.9679 9.714 15.7318 9.61622 15.5576 9.44214C15.3835 9.26807 15.2856 9.03196 15.2854 8.78572C15.2854 8.53941 15.3833 8.30319 15.5575 8.12902C15.7316 7.95485 15.9679 7.857 16.2142 7.857ZM19.9282 7.857C20.1745 7.857 20.4107 7.95485 20.5849 8.12902C20.759 8.30319 20.8569 8.53941 20.8569 8.78572C20.8568 9.03196 20.7589 9.26807 20.5847 9.44214C20.4106 9.61622 20.1744 9.714 19.9282 9.714C19.682 9.71389 19.446 9.61605 19.2719 9.44199C19.0978 9.26793 19 9.03188 18.9999 8.78572C18.9999 8.53949 19.0977 8.30333 19.2718 8.12917C19.4458 7.95502 19.6819 7.85712 19.9282 7.857ZM6 12.4997V55.2147C6 56.7414 7.25818 58 8.78572 58H55.2143C56.7418 58 58 56.7418 58 55.2143V12.5002L6 12.4997ZM12.4997 19.9286H16.2142C16.3361 19.9286 16.4569 19.9525 16.5696 19.9992C16.6823 20.0458 16.7848 20.1142 16.871 20.2005C16.9573 20.2867 17.0257 20.3892 17.0723 20.5019C17.119 20.6146 17.1429 20.7354 17.1429 20.8573C17.1428 20.9792 17.1188 21.0999 17.0721 21.2125C17.0254 21.3251 16.9569 21.4274 16.8707 21.5136C16.7845 21.5998 16.6821 21.6681 16.5694 21.7147C16.4568 21.7613 16.3361 21.7852 16.2142 21.7852H12.4997C12.3778 21.7852 12.2571 21.7613 12.1445 21.7147C12.0318 21.6681 11.9294 21.5998 11.8432 21.5136C11.757 21.4274 11.6885 21.3251 11.6418 21.2125C11.5951 21.0999 11.5711 20.9792 11.571 20.8573C11.5709 20.7354 11.5949 20.6146 11.6416 20.5019C11.6882 20.3892 11.7566 20.2867 11.8429 20.2005C11.9291 20.1142 12.0315 20.0458 12.1443 19.9992C12.257 19.9525 12.3777 19.9286 12.4997 19.9286ZM16.2142 23.6426H21.7856C21.9076 23.6426 22.0284 23.6667 22.1411 23.7134C22.2537 23.7601 22.3561 23.8285 22.4423 23.9148C22.5285 24.0011 22.5969 24.1035 22.6435 24.2163C22.6901 24.329 22.714 24.4498 22.7139 24.5718C22.7138 24.6937 22.6898 24.8144 22.6431 24.927C22.5964 25.0396 22.5279 25.1419 22.4417 25.228C22.3555 25.3142 22.2531 25.3825 22.1404 25.4291C22.0278 25.4757 21.9071 25.4997 21.7852 25.4996H16.2137C15.9676 25.4996 15.7316 25.4019 15.5575 25.2279C15.3834 25.0539 15.2856 24.8179 15.2854 24.5718C15.2853 24.4498 15.3093 24.3289 15.3559 24.2162C15.4025 24.1034 15.4709 24.001 15.5572 23.9147C15.6434 23.8284 15.7459 23.7599 15.8586 23.7132C15.9713 23.6666 16.0922 23.6426 16.2142 23.6426ZM25.4996 23.6426H31.0715C31.1935 23.6426 31.3143 23.6667 31.4269 23.7134C31.5396 23.7601 31.642 23.8285 31.7282 23.9148C31.8144 24.0011 31.8828 24.1035 31.9294 24.2163C31.976 24.329 31.9999 24.4498 31.9998 24.5718C31.9997 24.8179 31.9018 25.0539 31.7277 25.2279C31.5537 25.4019 31.3176 25.4996 31.0715 25.4996H25.4996C25.2536 25.4995 25.0176 25.4017 24.8437 25.2277C24.6697 25.0538 24.5719 24.8178 24.5718 24.5718C24.5717 24.4498 24.5956 24.3291 24.6421 24.2164C24.6887 24.1037 24.757 24.0013 24.8432 23.915C24.9294 23.8287 25.0317 23.7602 25.1443 23.7135C25.2569 23.6668 25.3777 23.6427 25.4996 23.6426ZM47.7858 25.4996C47.9078 25.4997 48.0285 25.5238 48.1411 25.5706C48.2537 25.6173 48.356 25.6858 48.4421 25.772L50.2996 27.629C50.3858 27.7153 50.4542 27.8177 50.5009 27.9304C50.5476 28.043 50.5716 28.1638 50.5716 28.2858C50.5716 28.4077 50.5476 28.5285 50.5009 28.6412C50.4542 28.7539 50.3858 28.8563 50.2996 28.9425L48.4421 30.7991C48.268 30.9731 48.032 31.0709 47.7858 31.0709C47.5397 31.0709 47.3036 30.9731 47.1295 30.7991C46.9555 30.625 46.8578 30.3889 46.8578 30.1428C46.8578 29.8966 46.9555 29.6606 47.1295 29.4865L48.3298 28.2853L47.1295 27.0846C46.9555 26.9105 46.8578 26.6745 46.8578 26.4283C46.8578 26.1822 46.9555 25.9461 47.1295 25.772C47.3036 25.5979 47.5397 25.4997 47.7858 25.4996ZM44.085 25.4996C44.2246 25.5017 44.362 25.5353 44.4868 25.5979C44.5959 25.6524 44.6932 25.7279 44.7731 25.82C44.853 25.9122 44.9139 26.0191 44.9525 26.1348C44.991 26.2505 45.0064 26.3727 44.9977 26.4944C44.989 26.616 44.9564 26.7347 44.9018 26.8438L43.0448 30.5573C42.9904 30.6665 42.9149 30.7638 42.8228 30.8437C42.7307 30.9237 42.6237 30.9847 42.508 31.0233C42.3923 31.0618 42.2701 31.0772 42.1484 31.0686C42.0268 31.0599 41.908 31.0274 41.7989 30.9728C41.6898 30.9183 41.5925 30.8428 41.5126 30.7507C41.4326 30.6586 41.3716 30.5516 41.333 30.4359C41.2944 30.3202 41.279 30.1981 41.2877 30.0764C41.2964 29.9547 41.3289 29.836 41.3835 29.7269L43.2409 26.0129C43.3511 25.7929 43.5441 25.6257 43.7775 25.5479C43.8765 25.5146 43.9805 25.4983 44.085 25.4996ZM38.4438 25.5018C38.575 25.4938 38.7064 25.5138 38.8293 25.5604C38.9522 25.607 39.0637 25.6791 39.1567 25.772C39.3307 25.9461 39.4285 26.1822 39.4285 26.4283C39.4285 26.6745 39.3307 26.9105 39.1567 27.0846L37.9555 28.2853L39.1567 29.4865C39.3307 29.6606 39.4285 29.8966 39.4285 30.1428C39.4285 30.3889 39.3307 30.625 39.1567 30.7991C39.0705 30.8854 38.9681 30.9538 38.8554 31.0005C38.7427 31.0472 38.6219 31.0713 38.4999 31.0713C38.378 31.0713 38.2572 31.0472 38.1445 31.0005C38.0318 30.9538 37.9294 30.8854 37.8432 30.7991L35.9862 28.9425C35.9 28.8563 35.8316 28.7539 35.7849 28.6412C35.7382 28.5285 35.7142 28.4077 35.7142 28.2858C35.7142 28.1638 35.7382 28.043 35.7849 27.9304C35.8316 27.8177 35.9 27.7153 35.9862 27.629L37.8432 25.772C38.0038 25.6115 38.2171 25.5154 38.4438 25.5018ZM16.2142 27.3571H19.9286C20.0505 27.357 20.1712 27.381 20.2839 27.4276C20.3965 27.4741 20.4989 27.5425 20.5851 27.6286C20.6714 27.7148 20.7398 27.8171 20.7865 27.9297C20.8332 28.0423 20.8573 28.163 20.8573 28.2849C20.8574 28.4069 20.8334 28.5277 20.7868 28.6404C20.7401 28.7531 20.6717 28.8555 20.5854 28.9417C20.4992 29.028 20.3968 29.0964 20.2841 29.143C20.1714 29.1897 20.0506 29.2137 19.9286 29.2136H16.2142C16.0922 29.2137 15.9714 29.1897 15.8587 29.143C15.746 29.0964 15.6436 29.028 15.5573 28.9417C15.4711 28.8555 15.4027 28.7531 15.356 28.6404C15.3094 28.5277 15.2854 28.4069 15.2854 28.2849C15.2854 28.163 15.3095 28.0422 15.3562 27.9296C15.4028 27.8169 15.4712 27.7146 15.5575 27.6284C15.6437 27.5421 15.7461 27.4738 15.8588 27.4272C15.9715 27.3805 16.0922 27.3566 16.2142 27.3566V27.3571ZM23.6431 27.3571H27.3571C27.6031 27.3572 27.839 27.455 28.013 27.6289C28.187 27.8029 28.2848 28.0389 28.2849 28.2849C28.285 28.4068 28.261 28.5275 28.2144 28.6402C28.1678 28.7528 28.0995 28.8552 28.0133 28.9414C27.9272 29.0277 27.8249 29.0961 27.7123 29.1428C27.5997 29.1895 27.479 29.2136 27.3571 29.2136H23.6431C23.521 29.2137 23.4002 29.1898 23.2874 29.1432C23.1747 29.0965 23.0722 29.0281 22.9859 28.9419C22.8996 28.8556 22.8312 28.7532 22.7845 28.6405C22.7378 28.5277 22.7138 28.4069 22.7139 28.2849C22.7139 28.1629 22.7379 28.0421 22.7846 27.9295C22.8313 27.8168 22.8998 27.7144 22.9861 27.6282C23.0724 27.542 23.1748 27.4736 23.2875 27.427C23.4003 27.3804 23.5211 27.3565 23.6431 27.3566V27.3571ZM16.2142 31.0711H23.6431C23.765 31.071 23.8857 31.095 23.9983 31.1416C24.111 31.1882 24.2133 31.2565 24.2996 31.3426C24.3858 31.4288 24.4542 31.5311 24.5009 31.6437C24.5476 31.7563 24.5717 31.877 24.5718 31.9989C24.5718 32.1209 24.5478 32.2417 24.5012 32.3544C24.4545 32.4671 24.3861 32.5695 24.2999 32.6557C24.2136 32.742 24.1112 32.8104 23.9985 32.857C23.8858 32.9037 23.765 32.9277 23.6431 32.9276H16.2142C16.0922 32.9277 15.9714 32.9037 15.8587 32.857C15.746 32.8104 15.6436 32.742 15.5573 32.6557C15.4711 32.5695 15.4027 32.4671 15.356 32.3544C15.3094 32.2417 15.2854 32.1209 15.2854 31.9989C15.2855 31.877 15.3096 31.7563 15.3563 31.6437C15.403 31.5311 15.4714 31.4288 15.5576 31.3426C15.6439 31.2565 15.7463 31.1882 15.8589 31.1416C15.9715 31.095 16.0923 31.071 16.2142 31.0711ZM27.3571 31.0711H31.0715C31.3176 31.0711 31.5537 31.1688 31.7277 31.3428C31.9018 31.5168 31.9997 31.7528 31.9998 31.9989C31.9998 32.1208 31.9759 32.2416 31.9292 32.3543C31.8826 32.467 31.8143 32.5693 31.7281 32.6556C31.6418 32.7418 31.5395 32.8102 31.4268 32.8569C31.3142 32.9036 31.1934 32.9276 31.0715 32.9276H27.3571C27.2351 32.9277 27.1143 32.9037 27.0016 32.857C26.8889 32.8104 26.7865 32.742 26.7002 32.6557C26.614 32.5695 26.5456 32.4671 26.4989 32.3544C26.4523 32.2417 26.4283 32.1209 26.4283 31.9989C26.4284 31.877 26.4525 31.7563 26.4992 31.6437C26.5459 31.5311 26.6143 31.4288 26.7005 31.3426C26.7868 31.2565 26.8891 31.1882 27.0018 31.1416C27.1144 31.095 27.2352 31.071 27.3571 31.0711ZM12.4997 36.6425H16.2142C16.3361 36.6424 16.4569 36.6664 16.5695 36.713C16.6822 36.7597 16.7846 36.828 16.8708 36.9142C16.9571 37.0004 17.0255 37.1028 17.0722 37.2154C17.1189 37.3281 17.1429 37.4488 17.1429 37.5708C17.1429 37.6927 17.1189 37.8135 17.0722 37.9261C17.0255 38.0388 16.9571 38.1411 16.8708 38.2273C16.7846 38.3135 16.6822 38.3819 16.5695 38.4285C16.4569 38.4752 16.3361 38.4991 16.2142 38.4991H12.4997C12.3778 38.4991 12.257 38.4752 12.1444 38.4285C12.0317 38.3819 11.9293 38.3135 11.843 38.2273C11.7568 38.1411 11.6884 38.0388 11.6417 37.9261C11.595 37.8135 11.571 37.6927 11.571 37.5708C11.5709 37.4488 11.5949 37.328 11.6416 37.2153C11.6882 37.1026 11.7566 37.0002 11.8429 36.914C11.9291 36.8277 12.0315 36.7593 12.1443 36.7126C12.257 36.666 12.3777 36.6424 12.4997 36.6425ZM16.2142 40.3565H21.7856C21.9076 40.3565 22.0284 40.3805 22.1411 40.4273C22.2537 40.474 22.3561 40.5424 22.4423 40.6287C22.5285 40.715 22.5969 40.8174 22.6435 40.9302C22.6901 41.0429 22.714 41.1637 22.7139 41.2857C22.7138 41.4076 22.6898 41.5283 22.6431 41.6409C22.5964 41.7535 22.5279 41.8558 22.4417 41.9419C22.3555 42.0281 22.2531 42.0964 22.1404 42.143C22.0278 42.1896 21.9071 42.2136 21.7852 42.2135H16.2137C15.9676 42.2135 15.7316 42.1158 15.5575 41.9418C15.3834 41.7678 15.2856 41.5318 15.2854 41.2857C15.2853 41.1637 15.3093 41.0428 15.3559 40.9301C15.4025 40.8173 15.4709 40.7148 15.5572 40.6286C15.6434 40.5423 15.7459 40.4738 15.8586 40.4271C15.9713 40.3804 16.0922 40.3564 16.2142 40.3565ZM25.4996 40.3565H31.0715C31.1935 40.3565 31.3143 40.3805 31.4269 40.4273C31.5396 40.474 31.642 40.5424 31.7282 40.6287C31.8144 40.715 31.8828 40.8174 31.9294 40.9302C31.976 41.0429 31.9999 41.1637 31.9998 41.2857C31.9997 41.5318 31.9018 41.7678 31.7277 41.9418C31.5537 42.1158 31.3176 42.2135 31.0715 42.2135H25.4996C25.2535 42.2135 25.0175 42.1158 24.8434 41.9418C24.6693 41.7678 24.5715 41.5318 24.5713 41.2857C24.5712 41.1637 24.5951 41.043 24.6417 40.9303C24.6883 40.8176 24.7566 40.7151 24.8428 40.6289C24.9289 40.5426 25.0312 40.4741 25.1439 40.4274C25.2565 40.3806 25.3777 40.3566 25.4996 40.3565ZM34.7859 40.3565H40.3574C40.4794 40.3565 40.6001 40.3805 40.7128 40.4273C40.8255 40.474 40.9279 40.5424 41.0141 40.6287C41.1003 40.715 41.1687 40.8174 41.2153 40.9302C41.2619 41.0429 41.2858 41.1637 41.2857 41.2857C41.2856 41.4076 41.2615 41.5283 41.2148 41.6409C41.1681 41.7535 41.0997 41.8558 41.0135 41.9419C40.9272 42.0281 40.8249 42.0964 40.7122 42.143C40.5996 42.1896 40.4789 42.2136 40.3569 42.2135H34.7859C34.664 42.2136 34.5433 42.1896 34.4307 42.143C34.318 42.0964 34.2157 42.0281 34.1294 41.9419C34.0432 41.8558 33.9748 41.7535 33.9281 41.6409C33.8813 41.5283 33.8573 41.4076 33.8572 41.2857C33.8571 41.1637 33.881 41.0428 33.9277 40.9301C33.9743 40.8173 34.0427 40.7148 34.129 40.6286C34.2152 40.5423 34.3176 40.4738 34.4304 40.4271C34.5431 40.3804 34.6639 40.3564 34.7859 40.3565ZM44.0714 40.3565H51.5003C51.6223 40.3564 51.7431 40.3804 51.8559 40.4271C51.9686 40.4738 52.071 40.5423 52.1573 40.6286C52.2435 40.7148 52.3119 40.8173 52.3585 40.9301C52.4052 41.0428 52.4291 41.1637 52.429 41.2857C52.4289 41.4076 52.4049 41.5283 52.3582 41.6409C52.3115 41.7535 52.243 41.8558 52.1568 41.9419C52.0706 42.0281 51.9682 42.0964 51.8555 42.143C51.7429 42.1896 51.6222 42.2136 51.5003 42.2135H44.0714C43.9495 42.2136 43.8288 42.1896 43.7161 42.143C43.6035 42.0964 43.5011 42.0281 43.4149 41.9419C43.3286 41.8558 43.2602 41.7535 43.2135 41.6409C43.1668 41.5283 43.1427 41.4076 43.1427 41.2857C43.1426 41.1637 43.1665 41.0428 43.2131 40.9301C43.2597 40.8173 43.3281 40.7148 43.4144 40.6286C43.5007 40.5423 43.6031 40.4738 43.7158 40.4271C43.8285 40.3804 43.9494 40.3564 44.0714 40.3565ZM16.2142 44.0709H19.9286C20.0506 44.0709 20.1714 44.0949 20.2841 44.1415C20.3968 44.1882 20.4992 44.2566 20.5854 44.3428C20.6717 44.4291 20.7401 44.5315 20.7868 44.6442C20.8334 44.7569 20.8574 44.8777 20.8573 44.9997C20.8573 45.1216 20.8332 45.2423 20.7865 45.3549C20.7398 45.4675 20.6714 45.5698 20.5851 45.6559C20.4989 45.7421 20.3965 45.8104 20.2839 45.857C20.1712 45.9036 20.0505 45.9276 19.9286 45.9275H16.2142C16.0923 45.9276 15.9715 45.9036 15.8589 45.857C15.7463 45.8104 15.6439 45.7421 15.5576 45.6559C15.4714 45.5698 15.403 45.4675 15.3563 45.3549C15.3096 45.2423 15.2855 45.1216 15.2854 44.9997C15.2854 44.8777 15.3094 44.7569 15.356 44.6442C15.4027 44.5315 15.4711 44.4291 15.5573 44.3428C15.6436 44.2566 15.746 44.1882 15.8587 44.1415C15.9714 44.0949 16.0922 44.0709 16.2142 44.0709ZM23.6431 44.0709H27.3571C27.479 44.071 27.5997 44.0951 27.7123 44.1418C27.8249 44.1885 27.9272 44.2569 28.0133 44.3431C28.0995 44.4294 28.1678 44.5318 28.2144 44.6444C28.261 44.757 28.285 44.8778 28.2849 44.9997C28.2848 45.2457 28.187 45.4816 28.013 45.6556C27.839 45.8296 27.6031 45.9274 27.3571 45.9275H23.6431C23.5211 45.9276 23.4003 45.9037 23.2876 45.8571C23.175 45.8106 23.0725 45.7423 22.9862 45.6561C22.9 45.5699 22.8315 45.4676 22.7848 45.355C22.738 45.2423 22.714 45.1216 22.7139 44.9997C22.7138 44.8777 22.7378 44.7568 22.7845 44.6441C22.8312 44.5314 22.8996 44.4289 22.9859 44.3427C23.0722 44.2564 23.1747 44.188 23.2874 44.1414C23.4002 44.0948 23.521 44.0708 23.6431 44.0709ZM31.0715 44.0709H34.7859C34.9078 44.071 35.0285 44.0951 35.1411 44.1418C35.2537 44.1885 35.3561 44.2569 35.4422 44.3431C35.5284 44.4294 35.5967 44.5318 35.6433 44.6444C35.6899 44.757 35.7138 44.8778 35.7138 44.9997C35.7137 45.2457 35.6159 45.4816 35.4419 45.6556C35.2679 45.8296 35.032 45.9274 34.7859 45.9275H31.0715C30.9496 45.9276 30.8289 45.9036 30.7162 45.857C30.6036 45.8104 30.5012 45.7421 30.415 45.6559C30.3287 45.5698 30.2603 45.4675 30.2136 45.3549C30.1669 45.2423 30.1428 45.1216 30.1428 44.9997C30.1427 44.8777 30.1667 44.7569 30.2134 44.6442C30.26 44.5315 30.3284 44.4291 30.4147 44.3428C30.5009 44.2566 30.6033 44.1882 30.716 44.1415C30.8287 44.0949 30.9495 44.0709 31.0715 44.0709ZM38.5004 44.0709H42.2144C42.3363 44.0709 42.4571 44.095 42.5697 44.1417C42.6824 44.1883 42.7847 44.2567 42.8709 44.343C42.9571 44.4292 43.0255 44.5316 43.0721 44.6443C43.1188 44.757 43.1427 44.8777 43.1427 44.9997C43.1426 45.2458 43.0447 45.4818 42.8706 45.6558C42.6966 45.8298 42.4605 45.9275 42.2144 45.9275H38.5004C38.3785 45.9276 38.2578 45.9036 38.1451 45.857C38.0325 45.8104 37.9301 45.7421 37.8439 45.6559C37.7576 45.5698 37.6892 45.4675 37.6425 45.3549C37.5958 45.2423 37.5717 45.1216 37.5717 44.9997C37.5716 44.8777 37.5956 44.7569 37.6422 44.6442C37.6889 44.5315 37.7573 44.4291 37.8436 44.3428C37.9298 44.2566 38.0322 44.1882 38.1449 44.1415C38.2576 44.0949 38.3784 44.0709 38.5004 44.0709ZM16.2142 47.7854H21.7856C21.9076 47.7854 22.0283 47.8094 22.141 47.8561C22.2536 47.9028 22.356 47.9712 22.4422 48.0574C22.5284 48.1437 22.5967 48.2461 22.6434 48.3587C22.69 48.4714 22.714 48.5922 22.7139 48.7141C22.7138 48.836 22.6898 48.9567 22.6431 49.0693C22.5964 49.1819 22.5279 49.2842 22.4417 49.3704C22.3555 49.4565 22.2531 49.5249 22.1404 49.5715C22.0278 49.6181 21.9071 49.642 21.7852 49.642H16.2137C15.9676 49.642 15.7316 49.5442 15.5575 49.3702C15.3834 49.1962 15.2856 48.9602 15.2854 48.7141C15.2854 48.5921 15.3094 48.4713 15.356 48.3586C15.4027 48.2459 15.4711 48.1435 15.5573 48.0573C15.6436 47.971 15.746 47.9026 15.8587 47.856C15.9714 47.8093 16.0922 47.7853 16.2142 47.7854ZM25.4996 47.7854H31.0715C31.3176 47.7854 31.5537 47.8831 31.7277 48.0571C31.9018 48.2311 31.9997 48.4671 31.9998 48.7132C31.9998 48.8352 31.9759 48.9559 31.9292 49.0686C31.8826 49.1813 31.8143 49.2837 31.7281 49.3699C31.6418 49.4562 31.5395 49.5246 31.4268 49.5713C31.3142 49.6179 31.1934 49.642 31.0715 49.642H25.4996C25.2536 49.6418 25.0176 49.544 24.8437 49.3701C24.6697 49.1961 24.5719 48.9602 24.5718 48.7141C24.5717 48.5922 24.5957 48.4715 24.6423 48.3588C24.6889 48.2462 24.7572 48.1438 24.8434 48.0576C24.9295 47.9714 25.0318 47.9029 25.1444 47.8562C25.257 47.8095 25.3777 47.7855 25.4996 47.7854ZM34.7859 47.7854H42.2144C42.4605 47.7854 42.6966 47.8831 42.8706 48.0571C43.0447 48.2311 43.1426 48.4671 43.1427 48.7132C43.1427 48.8352 43.1188 48.9559 43.0721 49.0686C43.0255 49.1813 42.9571 49.2837 42.8709 49.3699C42.7847 49.4562 42.6824 49.5246 42.5697 49.5713C42.4571 49.6179 42.3363 49.642 42.2144 49.642H34.7859C34.664 49.642 34.5432 49.618 34.4305 49.5714C34.3178 49.5247 34.2154 49.4563 34.1291 49.3701C34.0429 49.2838 33.9745 49.1814 33.9278 49.0687C33.8811 48.956 33.8572 48.8352 33.8572 48.7132C33.8573 48.5913 33.8813 48.4706 33.9281 48.358C33.9748 48.2454 34.0432 48.1431 34.1294 48.057C34.2157 47.9708 34.318 47.9025 34.4307 47.8559C34.5433 47.8093 34.664 47.7853 34.7859 47.7854ZM45.9284 47.7854H49.6424C49.7643 47.7853 49.885 47.8093 49.9977 47.8559C50.1103 47.9025 50.2127 47.9708 50.2989 48.057C50.3852 48.1431 50.4536 48.2454 50.5003 48.358C50.547 48.4706 50.5711 48.5913 50.5711 48.7132C50.5712 48.8352 50.5472 48.956 50.5005 49.0687C50.4539 49.1814 50.3855 49.2838 50.2992 49.3701C50.213 49.4563 50.1106 49.5247 49.9979 49.5714C49.8852 49.618 49.7644 49.642 49.6424 49.642H45.9284C45.8064 49.642 45.6857 49.6179 45.5731 49.5713C45.4604 49.5246 45.358 49.4562 45.2718 49.3699C45.1856 49.2837 45.1173 49.1813 45.0706 49.0686C45.024 48.9559 45 48.8352 45.0001 48.7132C45.0002 48.4671 45.0981 48.2311 45.2722 48.0571C45.4462 47.8831 45.6823 47.7854 45.9284 47.7854Z" fill="white"/>
</g>
</g>
</svg>
