<svg width="64" height="64" viewBox="0 0 64 64" fill="none" xmlns="http://www.w3.org/2000/svg">
<g id="facebook">
<path id="Vector" d="M55.3 7H7.7C6.765 7 6 7.76154 6 8.69231V51H12.8V49.3077H7.7V18H55.3V49.3077H50.2V51H57V8.69231C57 7.76154 56.235 7 55.3 7ZM49.775 8.69231C50.455 8.69231 51.05 9.28462 51.05 9.96154C51.05 10.6385 50.455 11.2308 49.775 11.2308C49.095 11.2308 48.5 10.6385 48.5 9.96154C48.5 9.28462 49.095 8.69231 49.775 8.69231ZM46.8 16.3077H7.7V12.9231H46.8V16.3077ZM45.525 11.2308C44.845 11.2308 44.25 10.6385 44.25 9.96154C44.25 9.28462 44.845 8.69231 45.525 8.69231C46.205 8.69231 46.8 9.28462 46.8 9.96154C46.8 10.6385 46.205 11.2308 45.525 11.2308ZM55.3 16.3077H48.5V12.9231H55.3V16.3077ZM54.025 11.2308C53.345 11.2308 52.75 10.6385 52.75 9.96154C52.75 9.28462 53.345 8.69231 54.025 8.69231C54.705 8.69231 55.3 9.28462 55.3 9.96154C55.3 10.6385 54.705 11.2308 54.025 11.2308Z" fill="black"/>
<path id="Vector_2" d="M47.6667 28.625V27.8125C47.6667 27.325 47.3333 27 46.8333 27H15.1667C14.6667 27 14.3333 27.325 14.3333 27.8125V28.625L11 36.75C11 38.5375 12.5 40 14.3333 40C16.1667 40 17.6667 38.5375 17.6667 36.75C17.6667 38.5375 19.1667 40 21 40C22.8333 40 24.3333 38.5375 24.3333 36.75C24.3333 38.5375 25.8333 40 27.6667 40C29.5 40 31 38.5375 31 36.75C31 38.5375 32.5 40 34.3333 40C36.1667 40 37.6667 38.5375 37.6667 36.75C37.6667 38.5375 39.1667 40 41 40C42.8333 40 44.3333 38.5375 44.3333 36.75C44.3333 38.5375 45.8333 40 47.6667 40C49.5 40 51 38.5375 51 36.75L47.6667 28.625Z" fill="black"/>
<path id="Vector_3" d="M44.6 41C43.665 41.8293 42.475 42.2439 41.2 42.2439C39.925 42.2439 38.735 41.7463 37.8 41C36.865 41.8293 35.675 42.2439 34.4 42.2439C33.125 42.2439 31.935 41.7463 31 41C30.065 41.8293 28.875 42.2439 27.6 42.2439C26.325 42.2439 25.135 41.7463 24.2 41C23.265 41.8293 22.075 42.2439 20.8 42.2439C19.525 42.2439 18.335 41.7463 17.4 41C16.465 41.8293 15.275 42.2439 14 42.2439V58H36.1V45.561H44.6V58H48V42.2439C46.725 42.2439 45.535 41.7463 44.6 41ZM32.7 54.6829H17.4V45.561H32.7V54.6829Z" fill="black"/>
</g>
</svg>
