<svg width="64" height="64" viewBox="0 0 64 64" fill="none" xmlns="http://www.w3.org/2000/svg">
<g id="facebook">
<g id="Group 1000010673">
<path id="Vector" d="M31.7863 44.9229C30.0706 44.9188 28.3946 45.4387 26.9824 46.413L27.9975 47.8672C29.1212 47.1077 30.4458 46.7002 31.8021 46.6967C33.1584 46.6931 34.485 47.0937 35.6127 47.8473L36.6087 46.3801C35.2 45.4251 33.5359 44.9172 31.8339 44.9229H31.7863Z" fill="black"/>
<path id="Vector_2" d="M25.0371 43.3638L26.0054 44.8501C27.7279 43.7372 29.7355 43.1464 31.7862 43.149H31.8274C33.8699 43.1384 35.8713 43.7233 37.5865 44.8323L38.5548 43.3461C36.53 42.0576 34.1794 41.3738 31.7793 41.3752C29.3871 41.3738 27.0456 42.0644 25.0371 43.3638Z" fill="black"/>
<path id="Vector_3" d="M28.9043 49.2712L29.8172 50.7921C30.4185 50.4425 31.1012 50.2572 31.7967 50.2548C32.4923 50.2523 33.1763 50.4329 33.78 50.7782L34.679 49.2495C33.7997 48.7448 32.8027 48.481 31.7888 48.4848C30.7748 48.4886 29.7799 48.7598 28.9043 49.2712Z" fill="black"/>
<path id="Vector_4" d="M31.8615 53.7918C32.3513 53.7918 32.7484 53.3947 32.7484 52.9049C32.7484 52.415 32.3513 52.018 31.8615 52.018C31.3717 52.018 30.9746 52.415 30.9746 52.9049C30.9746 53.3947 31.3717 53.7918 31.8615 53.7918Z" fill="black"/>
<path id="Vector_5" d="M21.2194 30.7326C20.228 30.7343 19.2514 30.9725 18.3706 31.4274C17.4899 31.8824 16.7304 32.541 16.1553 33.3485C15.5802 34.156 15.2062 35.089 15.0642 36.0702C14.9222 37.0513 15.0165 38.0521 15.3391 38.9895C15.7531 40.2125 16.5432 41.2733 17.5963 42.0204C18.6494 42.7674 19.9117 43.1625 21.2028 43.1491H21.2194V36.9408C21.2201 36.2354 21.5007 35.5591 21.9995 35.0603C22.4983 34.5615 23.1746 34.2809 23.88 34.2802H39.8441C40.5495 34.2809 41.2258 34.5615 41.7246 35.0603C42.2234 35.5591 42.504 36.2354 42.5048 36.9408V43.1491C44.3573 43.1491 46.1364 42.4245 47.4618 41.1302C48.7872 39.8359 49.5539 38.0745 49.5979 36.2225C49.6091 34.5525 48.9738 32.9428 47.825 31.7306C45.3145 29.0107 43.1865 28.7364 41.2704 29.0732C40.6733 26.8579 39.3138 24.9243 37.4313 23.6129C35.5488 22.3014 33.2639 21.6961 30.979 21.9035C28.6941 22.111 26.5556 23.1179 24.9401 24.7469C23.3245 26.376 22.3355 28.5228 22.1471 30.8094C21.8402 30.7607 21.5301 30.735 21.2194 30.7326Z" fill="black"/>
<path id="Vector_6" d="M41.6171 58.2262V36.9408C41.6166 36.4705 41.4296 36.0196 41.097 35.6871C40.7645 35.3546 40.3136 35.1675 39.8433 35.1671H23.8793C23.409 35.1675 22.9581 35.3546 22.6255 35.6871C22.293 36.0196 22.1059 36.4705 22.1055 36.9408V58.2262C22.1059 58.6965 22.293 59.1474 22.6255 59.4799C22.9581 59.8125 23.409 59.9995 23.8793 60H39.8433C40.3136 59.9995 40.7645 59.8125 41.097 59.4799C41.4296 59.1474 41.6166 58.6965 41.6171 58.2262ZM23.8793 58.2262V36.9408H39.8433L39.8446 58.2262H23.8793Z" fill="black"/>
<path id="Vector_7" d="M30.9751 11.9825V19.203H32.7489V11.9825C33.585 11.7666 34.3136 11.2532 34.7982 10.5386C35.2828 9.82397 35.4901 8.95713 35.3813 8.10055C35.2725 7.24398 34.855 6.4565 34.2072 5.8857C33.5593 5.31491 32.7255 5 31.862 5C30.9986 5 30.1648 5.31491 29.5169 5.8857C28.869 6.4565 28.4515 7.24398 28.3427 8.10055C28.2339 8.95713 28.4413 9.82397 28.9259 10.5386C29.4105 11.2532 30.1391 11.7666 30.9751 11.9825Z" fill="black"/>
<path id="Vector_8" d="M17.3494 18.3611L22.4551 23.4669L23.7092 22.2127L18.6035 17.107C19.042 16.3632 19.1943 15.485 19.0316 14.637C18.869 13.789 18.4027 13.0294 17.72 12.5006C17.0374 11.9719 16.1854 11.7102 15.3236 11.7647C14.4619 11.8192 13.6496 12.1861 13.0391 12.7967C12.4285 13.4073 12.0616 14.2195 12.0071 15.0813C11.9526 15.943 12.2142 16.795 12.743 17.4777C13.2718 18.1603 14.0314 18.6266 14.8794 18.7893C15.7274 18.9519 16.6056 18.7997 17.3494 18.3611Z" fill="black"/>
<path id="Vector_9" d="M41.2678 23.4668L46.3735 18.3611C47.1173 18.7996 47.9955 18.9518 48.8435 18.7892C49.6916 18.6266 50.4511 18.1602 50.9799 17.4776C51.5087 16.795 51.7703 15.9429 51.7158 15.0812C51.6613 14.2195 51.2944 13.4072 50.6838 12.7966C50.0733 12.1861 49.261 11.8191 48.3993 11.7646C47.5375 11.7101 46.6855 11.9718 46.0029 12.5006C45.3203 13.0293 44.8539 13.7889 44.6913 14.6369C44.5286 15.4849 44.6809 16.3631 45.1194 17.1069L40.0137 22.2127L41.2678 23.4668Z" fill="black"/>
</g>
</g>
</svg>
