<svg width="64" height="64" viewBox="0 0 64 64" fill="none" xmlns="http://www.w3.org/2000/svg">
<g id="facebook">
<path id="Vector" d="M50.1739 16.5333H44.4348V6.86667C44.4349 6.35885 44.3361 5.85598 44.1438 5.38679C43.9516 4.9176 43.6698 4.49128 43.3145 4.1322C42.9592 3.77312 42.5373 3.48831 42.073 3.29404C41.6088 3.09977 41.1112 2.99986 40.6087 3H13.8261C13.3236 2.99986 12.826 3.09977 12.3617 3.29404C11.8975 3.48831 11.4756 3.77312 11.1203 4.1322C10.765 4.49128 10.4832 4.9176 10.291 5.38679C10.0987 5.85598 9.99986 6.35885 10 6.86667V57.1333C9.99986 57.6411 10.0987 58.144 10.291 58.6132C10.4832 59.0824 10.765 59.5087 11.1203 59.8678C11.4756 60.2269 11.8975 60.5117 12.3617 60.7059C12.826 60.9002 13.3236 61.0001 13.8261 61H40.6087C41.1112 61.0001 41.6088 60.9002 42.073 60.7059C42.5373 60.5117 42.9591 60.2269 43.3145 59.8678C43.6698 59.5087 43.9516 59.0824 44.1438 58.6132C44.336 58.144 44.4349 57.6411 44.4348 57.1333V49.4H50.1739C50.6764 49.4001 51.174 49.3002 51.6383 49.1059C52.1025 48.9117 52.5244 48.6269 52.8797 48.2678C53.235 47.9087 53.5168 47.4824 53.709 47.0132C53.9013 46.544 54.0001 46.0411 54 45.5333V20.4C54.0001 19.8922 53.9013 19.3893 53.709 18.9201C53.5168 18.4509 53.235 18.0246 52.8797 17.6655C52.5244 17.3065 52.1025 17.0216 51.6383 16.8274C51.174 16.6331 50.6764 16.5332 50.1739 16.5333ZM19.5652 40.7C19.314 40.6962 19.0743 40.5927 18.898 40.4118C18.7216 40.231 18.6228 39.9872 18.6228 39.7333C18.6228 39.4794 18.7217 39.2357 18.898 39.0548C19.0744 38.8739 19.314 38.7704 19.5653 38.7667H31.0435C31.2947 38.7704 31.5344 38.8739 31.7107 39.0548C31.8871 39.2357 31.9859 39.4794 31.9859 39.7333C31.9859 39.9873 31.8871 40.231 31.7107 40.4119C31.5344 40.5927 31.2947 40.6962 31.0435 40.7H19.5652ZM28.1739 43.6C28.1732 43.8561 28.0721 44.1016 27.8929 44.2827C27.7137 44.4638 27.4708 44.5659 27.2174 44.5667H19.5652C19.3115 44.5667 19.0682 44.4648 18.8889 44.2835C18.7095 44.1022 18.6087 43.8564 18.6087 43.6C18.6087 43.3436 18.7095 43.0977 18.8889 42.9165C19.0682 42.7352 19.3115 42.6333 19.5652 42.6333H27.2174C27.4708 42.6341 27.7137 42.7362 27.8929 42.9173C28.0721 43.0984 28.1732 43.3439 28.1739 43.6ZM28.853 32.2803C29.0268 32.4637 29.1225 32.7085 29.1198 32.9623C29.1171 33.2162 29.0161 33.4588 28.8384 33.6383C28.6608 33.8178 28.4207 33.9199 28.1695 33.9226C27.9184 33.9253 27.6761 33.8285 27.4947 33.6529L22.7121 28.8196C22.5329 28.6371 22.4323 28.3904 22.4323 28.1333C22.4323 27.8761 22.5329 27.6294 22.7121 27.4469L27.4947 22.6136C27.6761 22.4378 27.9184 22.3408 28.1697 22.3435C28.421 22.3461 28.6612 22.4482 28.839 22.6278C29.0167 22.8074 29.1176 23.0502 29.1203 23.3041C29.1229 23.5581 29.0269 23.803 28.853 23.9863L24.74 28.1333L28.853 32.2803ZM31.9235 35.277C31.8223 35.5095 31.6346 35.6924 31.401 35.7861C31.1674 35.8797 30.9067 35.8767 30.6753 35.7775C30.444 35.6784 30.2605 35.4912 30.1647 35.2564C30.0689 35.0216 30.0685 34.7581 30.1635 34.5229L35.9026 20.9896C36.0036 20.7569 36.1913 20.5737 36.425 20.4799C36.6587 20.3861 36.9196 20.3891 37.1511 20.4883C37.3826 20.5874 37.5661 20.7748 37.6619 21.0098C37.7576 21.2448 37.7579 21.5085 37.6626 21.7437L31.9235 35.277ZM45.1139 28.8197L40.3313 33.653C40.1494 33.8318 39.9059 33.9323 39.6522 33.9333C39.4638 33.9307 39.2804 33.8725 39.1244 33.7657C38.9685 33.6589 38.8469 33.5084 38.7747 33.3326C38.7024 33.1568 38.6827 32.9634 38.718 32.7764C38.7532 32.5894 38.8419 32.417 38.973 32.2803L43.0861 28.1333L38.973 23.9863C38.7987 23.8031 38.7025 23.5581 38.7049 23.3039C38.7074 23.0498 38.8084 22.8067 38.9863 22.627C39.1641 22.4473 39.4046 22.3452 39.6561 22.3427C39.9076 22.3402 40.1501 22.4375 40.3314 22.6137L45.1139 27.447C45.2931 27.6295 45.3937 27.8762 45.3937 28.1333C45.3937 28.3905 45.2931 28.6372 45.1139 28.8197ZM42.5217 57.1333C42.5202 57.6456 42.3182 58.1365 41.9598 58.4987C41.6013 58.861 41.1156 59.0652 40.6087 59.0667H13.8261C13.3192 59.0652 12.8335 58.861 12.475 58.4987C12.1166 58.1365 11.9145 57.6456 11.913 57.1333V6.86667C11.9145 6.35438 12.1166 5.86349 12.475 5.50125C12.8334 5.139 13.3192 4.93483 13.8261 4.93333H20.5217V5.9C20.524 6.66844 20.827 7.40475 21.3647 7.94812C21.9023 8.49149 22.6309 8.79775 23.3913 8.8H31.0435C31.8038 8.79775 32.5324 8.49149 33.0701 7.94812C33.6078 7.40475 33.9108 6.66844 33.913 5.9V4.93333H40.6087C41.1156 4.93483 41.6013 5.139 41.9598 5.50125C42.3182 5.86349 42.5203 6.35438 42.5217 6.86667V16.5333H17.6522C17.1497 16.5332 16.6521 16.6331 16.1878 16.8274C15.7236 17.0216 15.3017 17.3065 14.9464 17.6655C14.5911 18.0246 14.3093 18.4509 14.117 18.9201C13.9248 19.3893 13.8259 19.8922 13.8261 20.4V45.5333C13.8259 46.0411 13.9248 46.544 14.1171 47.0132C14.3093 47.4824 14.5911 47.9087 14.9464 48.2678C15.3017 48.6269 15.7236 48.9117 16.1878 49.1059C16.6521 49.3002 17.1497 49.4001 17.6522 49.4H42.5217V57.1333Z" fill="black"/>
</g>
</svg>
