<svg width="32" height="33" viewBox="0 0 32 33" fill="none" xmlns="http://www.w3.org/2000/svg">
<g id="telegram">
<path id="telegram_2" fill-rule="evenodd" clip-rule="evenodd" d="M16 32.5C7.16344 32.5 0 25.3366 0 16.5C0 7.66344 7.16344 0.5 16 0.5C24.8366 0.5 32 7.66344 32 16.5C32 25.3366 24.8366 32.5 16 32.5ZM16.6919 12.5074C15.2589 13.1034 12.3949 14.3371 8.09992 16.2083C7.40248 16.4856 7.03714 16.757 7.00388 17.0223C6.94767 17.4706 7.50915 17.6472 8.27374 17.8876C8.37774 17.9203 8.4855 17.9542 8.59598 17.9901C9.34822 18.2346 10.3601 18.5207 10.8862 18.5321C11.3633 18.5424 11.8959 18.3457 12.4839 17.9419C16.4968 15.2331 18.5683 13.8639 18.6983 13.8344C18.7901 13.8136 18.9172 13.7874 19.0034 13.8639C19.0895 13.9405 19.0811 14.0855 19.0719 14.1244C19.0163 14.3615 16.8123 16.4106 15.6717 17.471C15.3161 17.8015 15.0639 18.036 15.0124 18.0896C14.8969 18.2096 14.7791 18.323 14.666 18.4321C13.9672 19.1058 13.4431 19.611 14.695 20.436C15.2967 20.8325 15.7781 21.1603 16.2584 21.4874C16.7829 21.8446 17.306 22.2009 17.9829 22.6446C18.1554 22.7576 18.3201 22.875 18.4805 22.9894C19.0909 23.4246 19.6393 23.8155 20.3168 23.7532C20.7105 23.717 21.1172 23.3468 21.3237 22.2427C21.8118 19.6335 22.7712 13.9801 22.9929 11.6505C23.0123 11.4464 22.9879 11.1851 22.9683 11.0705C22.9486 10.9558 22.9076 10.7924 22.7586 10.6715C22.582 10.5283 22.3095 10.4981 22.1877 10.5001C21.6335 10.51 20.7834 10.8056 16.6919 12.5074Z" fill="white"/>
</g>
</svg>
