<svg width="64" height="64" viewBox="0 0 64 64" fill="none" xmlns="http://www.w3.org/2000/svg">
<g id="Web-development">
<path id="Vector" fill-rule="evenodd" clip-rule="evenodd" d="M27.7699 42.6791C27.6942 42.7536 27.6043 42.8126 27.5054 42.8529C27.4065 42.8932 27.3005 42.914 27.1934 42.914C27.0864 42.914 26.9803 42.8932 26.8814 42.8529C26.7825 42.8126 26.6927 42.7536 26.617 42.6791C26.5413 42.6046 26.4812 42.5162 26.4402 42.4189C26.3993 42.3216 26.3782 42.2173 26.3782 42.112C26.3782 42.0067 26.3993 41.9024 26.4402 41.8051C26.4812 41.7078 26.5413 41.6194 26.617 41.5449L31.0739 37.1605L26.617 32.7761C26.4641 32.6257 26.3782 32.4217 26.3782 32.209C26.3782 31.9963 26.4641 31.7923 26.617 31.6419C26.7698 31.4915 26.9772 31.4071 27.1934 31.4071C27.4096 31.4071 27.617 31.4915 27.7699 31.6419L32.803 36.5931C32.8787 36.6676 32.9387 36.756 32.9797 36.8533C33.0207 36.9506 33.0418 37.0549 33.0418 37.1602C33.0418 37.2655 33.0207 37.3698 32.9797 37.4671C32.9387 37.5644 32.8787 37.6528 32.803 37.7273L27.7699 42.6791ZM20.507 44.9664C20.4794 45.068 20.4317 45.1633 20.3667 45.2468C20.3017 45.3303 20.2206 45.4003 20.128 45.453C20.0355 45.5056 19.9333 45.5399 19.8273 45.5537C19.7213 45.5675 19.6136 45.5606 19.5103 45.5335C19.4071 45.5063 19.3102 45.4594 19.2253 45.3955C19.1405 45.3315 19.0692 45.2518 19.0157 45.1607C18.9622 45.0697 18.9274 44.9692 18.9134 44.8649C18.8993 44.7606 18.9063 44.6547 18.9339 44.5531L23.1228 29.1841C23.1785 28.9789 23.3148 28.8039 23.5017 28.6975C23.6886 28.5912 23.9108 28.5622 24.1194 28.617C24.328 28.6718 24.5059 28.8059 24.614 28.9898C24.7222 29.1737 24.7516 29.3922 24.6959 29.5974L20.507 44.9664ZM8.65629 15.1109C8.54923 15.1109 8.44322 15.0902 8.34432 15.0499C8.24541 15.0096 8.15554 14.9505 8.07984 14.8761C8.00414 14.8016 7.94409 14.7132 7.90312 14.6159C7.86215 14.5186 7.84107 14.4143 7.84107 14.309C7.84107 14.2037 7.86215 14.0994 7.90312 14.0021C7.94409 13.9048 8.00414 13.8164 8.07984 13.7419C8.15554 13.6675 8.24541 13.6084 8.34432 13.5681C8.44322 13.5278 8.54923 13.507 8.65629 13.507H8.69109C8.9073 13.507 9.11465 13.5915 9.26754 13.7419C9.42042 13.8923 9.50631 14.0963 9.50631 14.309C9.50631 14.5217 9.42042 14.7257 9.26754 14.8761C9.11465 15.0265 8.9073 15.1109 8.69109 15.1109H8.65629ZM13.3607 15.1109C13.1445 15.1109 12.9372 15.0265 12.7843 14.8761C12.6314 14.7257 12.5455 14.5217 12.5455 14.309C12.5455 14.0963 12.6314 13.8923 12.7843 13.7419C12.9372 13.5915 13.1445 13.507 13.3607 13.507H13.3955C13.6117 13.507 13.8191 13.5915 13.972 13.7419C14.1249 13.8923 14.2108 14.0963 14.2108 14.309C14.2108 14.5217 14.1249 14.7257 13.972 14.8761C13.8191 15.0265 13.6117 15.1109 13.3955 15.1109H13.3607ZM18.0652 15.1109C17.849 15.1109 17.6416 15.0265 17.4887 14.8761C17.3358 14.7257 17.25 14.5217 17.25 14.309C17.25 14.0963 17.3358 13.8923 17.4887 13.7419C17.6416 13.5915 17.849 13.507 18.0652 13.507H18.1C18.3162 13.507 18.5235 13.5915 18.6764 13.7419C18.8293 13.8923 18.9152 14.0963 18.9152 14.309C18.9152 14.5217 18.8293 14.7257 18.6764 14.8761C18.5235 15.0265 18.3162 15.1109 18.1 15.1109H18.0652ZM27.4496 15.1109C27.2334 15.1109 27.026 15.0265 26.8731 14.8761C26.7202 14.7257 26.6344 14.5217 26.6344 14.309C26.6344 14.0963 26.7202 13.8923 26.8731 13.7419C27.026 13.5915 27.2334 13.507 27.4496 13.507H55.3411C55.4482 13.507 55.5542 13.5278 55.6531 13.5681C55.752 13.6084 55.8419 13.6675 55.9176 13.7419C55.9933 13.8164 56.0533 13.9048 56.0943 14.0021C56.1353 14.0994 56.1564 14.2037 56.1564 14.309C56.1564 14.4143 56.1353 14.5186 56.0943 14.6159C56.0533 14.7132 55.9933 14.8016 55.9176 14.8761C55.8419 14.9505 55.752 15.0096 55.6531 15.0499C55.5542 15.0902 55.4482 15.1109 55.3411 15.1109H27.4496ZM61 20.1128H3V54.1625C3.00119 54.3843 3.09126 54.5966 3.25065 54.7534C3.41005 54.9102 3.62589 54.9988 3.85131 55H60.1487C60.3741 54.9988 60.59 54.9102 60.7493 54.7534C60.9087 54.5966 60.9988 54.3843 61 54.1625V20.1128ZM46.4826 38.8145H46.4942C47.4603 38.8066 48.3903 39.1758 49.0801 39.8413C49.7699 40.5068 50.1633 41.4143 50.174 42.3647V42.3761C50.1824 43.3266 49.8071 44.2416 49.1306 44.9202C48.454 45.5989 47.5313 45.9857 46.5651 45.9959H46.5535C45.5871 46.0046 44.6568 45.6355 43.9669 44.9699C43.2769 44.3042 42.8837 43.3964 42.8737 42.4458V42.4344C42.8653 41.4839 43.2406 40.5689 43.9171 39.8902C44.5937 39.2116 45.5164 38.8247 46.4826 38.8145ZM50.1617 36.5621L51.1716 35.8894C51.2507 35.8361 51.3463 35.8116 51.4418 35.8201C51.5374 35.8287 51.6269 35.8698 51.6949 35.9364L53.0869 37.2797C53.1558 37.3453 53.1993 37.4325 53.2097 37.5263C53.2202 37.62 53.197 37.7145 53.1442 37.7932L52.4592 38.8329C52.4176 38.8942 52.3941 38.9655 52.3911 39.0391C52.3881 39.1127 52.4059 39.1857 52.4424 39.25C52.5545 39.4533 52.6558 39.6622 52.746 39.8757C52.8344 40.0859 52.9116 40.3005 52.9773 40.5186C52.9982 40.5911 53.0395 40.6564 53.0965 40.7068C53.1536 40.7572 53.224 40.7906 53.2995 40.8032L53.7893 40.8958L54.4982 41.0295C54.5925 41.0468 54.6777 41.0959 54.7391 41.1684C54.8005 41.2408 54.8343 41.3321 54.8346 41.4264L54.8533 43.3441C54.8549 43.4385 54.823 43.5305 54.763 43.6041C54.7029 43.6777 54.6186 43.7284 54.5246 43.7473L53.2937 44.0053C53.2204 44.0196 53.1524 44.0535 53.0975 44.1034C53.0425 44.1533 53.0027 44.2173 52.9825 44.2881C52.9153 44.5099 52.8364 44.728 52.746 44.9417C52.6569 45.1523 52.5571 45.3584 52.4469 45.5592C52.4097 45.6245 52.3919 45.6988 52.3957 45.7736C52.3995 45.8484 52.4246 45.9206 52.4682 45.982L53.1513 46.9754C53.2056 47.0532 53.2307 47.1471 53.2221 47.2411C53.2135 47.3351 53.1718 47.4232 53.1043 47.4902L51.738 48.8595C51.6714 48.9273 51.5827 48.9701 51.4874 48.9804C51.3921 48.9907 51.2961 48.9679 51.216 48.9159L50.1604 48.242C50.0982 48.201 50.0256 48.1778 49.9508 48.1749C49.8759 48.1719 49.8017 48.1895 49.7364 48.2256C49.3268 48.445 48.8948 48.6214 48.4475 48.7517C48.3737 48.7722 48.3072 48.8129 48.2559 48.869C48.2046 48.9251 48.1705 48.9943 48.1575 49.0687L48.0641 49.5505L47.9274 50.2479C47.91 50.3407 47.8601 50.4245 47.7865 50.485C47.7128 50.5454 47.6199 50.5786 47.524 50.5788L45.5746 50.5972C45.4787 50.5987 45.3853 50.5672 45.3104 50.5082C45.2356 50.4492 45.1841 50.3663 45.1647 50.2739L44.9031 49.063C44.8883 48.9908 44.8537 48.9241 44.8028 48.87C44.752 48.816 44.687 48.7768 44.615 48.7568C44.1681 48.6252 43.7362 48.4486 43.3261 48.23C43.2596 48.1934 43.1839 48.1759 43.1078 48.1796C43.0317 48.1833 42.9581 48.208 42.8956 48.2509L41.878 48.9191C41.799 48.9726 41.7034 48.9972 41.6078 48.9886C41.5122 48.98 41.4227 48.9389 41.3548 48.8722L39.9621 47.5288C39.8933 47.4632 39.8499 47.376 39.8394 47.2823C39.829 47.1885 39.8521 47.0941 39.9048 47.0153L40.5898 45.9769C40.6315 45.9157 40.6551 45.8443 40.6581 45.7707C40.6611 45.6971 40.6432 45.624 40.6066 45.5598C40.3843 45.1565 40.2053 44.7316 40.0723 44.2919C40.0514 44.2193 40.0101 44.154 39.9531 44.1035C39.8961 44.053 39.8257 44.0194 39.7501 44.0066L39.2603 43.9147L38.5514 43.7803C38.4571 43.7631 38.3718 43.7141 38.3104 43.6416C38.249 43.5691 38.2152 43.4778 38.215 43.3834L38.1957 41.4657C38.194 41.3713 38.226 41.2794 38.286 41.2057C38.346 41.1321 38.4304 41.0814 38.5244 41.0625L39.7559 40.8051C39.8292 40.7906 39.8971 40.7564 39.952 40.7064C40.0069 40.6564 40.0467 40.5925 40.0672 40.5217C40.1342 40.3 40.2129 40.0818 40.303 39.8681C40.3919 39.6575 40.4919 39.4516 40.6027 39.2513C40.6398 39.1858 40.6574 39.1114 40.6537 39.0366C40.6499 38.9617 40.6249 38.8894 40.5814 38.8278L39.8977 37.835C39.8434 37.7572 39.8185 37.6632 39.8272 37.5692C39.8359 37.4752 39.8777 37.3872 39.9454 37.3203L41.3109 35.9503C41.3777 35.8826 41.4663 35.8399 41.5616 35.8296C41.6569 35.8193 41.7529 35.842 41.8329 35.8939L42.8911 36.5671C42.9534 36.608 43.026 36.6312 43.1008 36.6341C43.1756 36.637 43.2498 36.6195 43.3152 36.5836C43.5218 36.4733 43.7341 36.3736 43.9512 36.285C44.1649 36.1981 44.383 36.1221 44.6047 36.0574C44.6785 36.0369 44.7448 35.9963 44.796 35.9401C44.8472 35.884 44.8812 35.8148 44.894 35.7405L44.9881 35.2587L45.1241 34.5613C45.1429 34.4685 45.1941 34.385 45.2688 34.3254C45.3436 34.2658 45.4371 34.2337 45.5333 34.2348L47.4828 34.2164C47.5787 34.2148 47.6722 34.2463 47.7471 34.3053C47.8219 34.3643 47.8734 34.4473 47.8926 34.5397L48.1549 35.7506C48.1694 35.8229 48.2039 35.8898 48.2546 35.944C48.3053 35.9981 48.3703 36.0374 48.4424 36.0574C48.6679 36.123 48.8897 36.2005 49.1068 36.2895C49.3209 36.3771 49.5304 36.4753 49.7345 36.5836C49.8008 36.6203 49.8763 36.6379 49.9524 36.6343C50.0284 36.6307 50.1019 36.6061 50.1643 36.5633L50.1617 36.5621ZM3 18.5083H61V10.8375C60.9988 10.6157 60.9087 10.4034 60.7493 10.2466C60.59 10.0898 60.3741 10.0012 60.1487 10H3.85131C3.62601 10.0012 3.41026 10.0897 3.25088 10.2463C3.0915 10.403 3.00135 10.6152 3 10.8368V18.5083ZM17.0102 41.375C17.0859 41.4495 17.146 41.5379 17.1869 41.6352C17.2279 41.7325 17.249 41.8368 17.249 41.9421C17.249 42.0474 17.2279 42.1517 17.1869 42.249C17.146 42.3463 17.0859 42.4347 17.0102 42.5092C16.9345 42.5837 16.8447 42.6427 16.7457 42.683C16.6468 42.7233 16.5408 42.7441 16.4338 42.7441C16.3267 42.7441 16.2207 42.7233 16.1218 42.683C16.0229 42.6427 15.933 42.5837 15.8573 42.5092L10.8242 37.558C10.7485 37.4835 10.6884 37.3951 10.6475 37.2978C10.6065 37.2005 10.5854 37.0963 10.5854 36.9909C10.5854 36.8856 10.6065 36.7813 10.6475 36.684C10.6884 36.5867 10.7485 36.4983 10.8242 36.4239L15.8573 31.4727C15.9323 31.3954 16.0223 31.3336 16.1219 31.2909C16.2215 31.2483 16.3288 31.2257 16.4374 31.2244C16.5461 31.2231 16.6539 31.2432 16.7545 31.2835C16.8551 31.3238 16.9466 31.3835 17.0234 31.4591C17.1003 31.5346 17.161 31.6245 17.202 31.7235C17.243 31.8225 17.2635 31.9285 17.2623 32.0354C17.2611 32.1422 17.2381 32.2478 17.1948 32.3458C17.1516 32.4438 17.0888 32.5324 17.0102 32.6062L12.5539 36.9906L17.0102 41.375Z" fill="white"/>
</g>
</svg>
